<?xml version="1.0" encoding="UTF-8"?>
<svg width="16px" height="16px" viewBox="0 0 16 16" version="1.1" xmlns="http://www.w3.org/2000/svg" xmlns:xlink="http://www.w3.org/1999/xlink">
    <title>search</title>
    <g id="Page-1" stroke="none" stroke-width="1" fill="none" fill-rule="evenodd">
        <g id="DARK-MOBILE" transform="translate(-48.000000, -120.000000)" fill="#FFFFFF">
            <g id="SEARCH" transform="translate(16.000000, 104.000000)">
                <g id="search" transform="translate(32.000000, 16.000000)">
                    <path d="M11.1111111,9.77777778 L10.4,9.77777778 L10.1333333,9.51111111 C11.0222222,8.53333333 11.5555556,7.2 11.5555556,5.77777778 C11.5555556,2.57777778 8.97777778,0 5.77777778,0 C2.57777778,0 0,2.57777778 0,5.77777778 C0,8.97777778 2.57777778,11.5555556 5.77777778,11.5555556 C7.2,11.5555556 8.53333333,11.0222222 9.51111111,10.1333333 L9.77777778,10.4 L9.77777778,11.1111111 L14.2222222,15.5555556 L15.5555556,14.2222222 L11.1111111,9.77777778 L11.1111111,9.77777778 Z M5.77777778,9.77777778 C3.55555556,9.77777778 1.77777778,8 1.77777778,5.77777778 C1.77777778,3.55555556 3.55555556,1.77777778 5.77777778,1.77777778 C8,1.77777778 9.77777778,3.55555556 9.77777778,5.77777778 C9.77777778,8 8,9.77777778 5.77777778,9.77777778 L5.77777778,9.77777778 Z" id="Shape"></path>
                </g>
            </g>
        </g>
    </g>
</svg>